<svg width="314" height="50" viewBox="0 0 314 50" fill="none" xmlns="http://www.w3.org/2000/svg">
<g filter="url(#filter0_d_3_25)">
<path d="M6.80469 0.875L17.9609 28.7188L29.1172 0.875H34.9531V35H30.4531V21.7109L30.875 7.36719L19.6719 35H16.2266L5.04688 7.4375L5.49219 21.7109V35H0.992188V0.875H6.80469ZM52.6484 18.0078L61.5547 0.875H66.6641L54.8984 22.2734V35H50.3984V22.2734L38.6328 0.875H43.7891L52.6484 18.0078ZM87.5 31.3203H103.672V35H82.9766V0.875H87.5V31.3203ZM113.633 35H109.133V0.875H113.633V35ZM121.883 35V0.875H133.039C136.742 0.875 139.523 1.64063 141.383 3.17188C143.258 4.70312 144.195 6.96875 144.195 9.96875C144.195 11.5625 143.742 12.9766 142.836 14.2109C141.93 15.4297 140.695 16.375 139.133 17.0469C140.977 17.5625 142.43 18.5469 143.492 20C144.57 21.4375 145.109 23.1562 145.109 25.1562C145.109 28.2188 144.117 30.625 142.133 32.375C140.148 34.125 137.344 35 133.719 35H121.883ZM126.383 19.0391V31.3203H133.812C135.906 31.3203 137.555 30.7812 138.758 29.7031C139.977 28.6094 140.586 27.1094 140.586 25.2031C140.586 21.0938 138.352 19.0391 133.883 19.0391H126.383ZM126.383 15.4297H133.18C135.148 15.4297 136.719 14.9375 137.891 13.9531C139.078 12.9688 139.672 11.6328 139.672 9.94531C139.672 8.07031 139.125 6.71094 138.031 5.86719C136.938 5.00781 135.273 4.57812 133.039 4.57812H126.383V15.4297ZM164.305 21.1953H156.289V35H151.766V0.875H163.062C166.906 0.875 169.859 1.75 171.922 3.5C174 5.25 175.039 7.79688 175.039 11.1406C175.039 13.2656 174.461 15.1172 173.305 16.6953C172.164 18.2734 170.57 19.4531 168.523 20.2344L176.539 34.7188V35H171.711L164.305 21.1953ZM156.289 17.5156H163.203C165.438 17.5156 167.211 16.9375 168.523 15.7812C169.852 14.625 170.516 13.0781 170.516 11.1406C170.516 9.03125 169.883 7.41406 168.617 6.28906C167.367 5.16406 165.555 4.59375 163.18 4.57812H156.289V17.5156ZM200.211 26.0938H185.914L182.703 35H178.062L191.094 0.875H195.031L208.086 35H203.469L200.211 26.0938ZM187.273 22.3906H198.875L193.062 6.42969L187.273 22.3906ZM225.195 21.1953H217.18V35H212.656V0.875H223.953C227.797 0.875 230.75 1.75 232.812 3.5C234.891 5.25 235.93 7.79688 235.93 11.1406C235.93 13.2656 235.352 15.1172 234.195 16.6953C233.055 18.2734 231.461 19.4531 229.414 20.2344L237.43 34.7188V35H232.602L225.195 21.1953ZM217.18 17.5156H224.094C226.328 17.5156 228.102 16.9375 229.414 15.7812C230.742 14.625 231.406 13.0781 231.406 11.1406C231.406 9.03125 230.773 7.41406 229.508 6.28906C228.258 5.16406 226.445 4.59375 224.07 4.57812H217.18V17.5156ZM251.539 18.0078L260.445 0.875H265.555L253.789 22.2734V35H249.289V22.2734L237.523 0.875H242.68L251.539 18.0078ZM264.406 32.7266C264.406 31.9766 264.625 31.3516 265.062 30.8516C265.516 30.3516 266.188 30.1016 267.078 30.1016C267.969 30.1016 268.641 30.3516 269.094 30.8516C269.562 31.3516 269.797 31.9766 269.797 32.7266C269.797 33.4453 269.562 34.0469 269.094 34.5312C268.641 35.0156 267.969 35.2578 267.078 35.2578C266.188 35.2578 265.516 35.0156 265.062 34.5312C264.625 34.0469 264.406 33.4453 264.406 32.7266ZM296.938 19.2266H282.148V31.3203H299.328V35H277.648V0.875H299.094V4.57812H282.148V15.5469H296.938V19.2266Z" fill="#734C4F"/>
<path d="M6.80469 0.875L7.73295 0.503071L7.4813 -0.125H6.80469V0.875ZM17.9609 28.7188L17.0327 29.0907L17.9609 31.4074L18.8892 29.0907L17.9609 28.7188ZM29.1172 0.875V-0.125H28.4406L28.1889 0.503071L29.1172 0.875ZM34.9531 0.875H35.9531V-0.125H34.9531V0.875ZM34.9531 35V36H35.9531V35H34.9531ZM30.4531 35H29.4531V36H30.4531V35ZM30.4531 21.7109L29.4536 21.6815L29.4531 21.6962V21.7109H30.4531ZM30.875 7.36719L31.8746 7.39659L29.9483 6.99146L30.875 7.36719ZM19.6719 35V36H20.3455L20.5986 35.3757L19.6719 35ZM16.2266 35L15.2999 35.3759L15.553 36H16.2266V35ZM5.04688 7.4375L5.97355 7.06163L4.04736 7.46868L5.04688 7.4375ZM5.49219 21.7109H6.49219V21.6953L6.4917 21.6798L5.49219 21.7109ZM5.49219 35V36H6.49219V35H5.49219ZM0.992188 35H-0.0078125V36H0.992188V35ZM0.992188 0.875V-0.125H-0.0078125V0.875H0.992188ZM5.87643 1.24693L17.0327 29.0907L18.8892 28.3468L7.73295 0.503071L5.87643 1.24693ZM18.8892 29.0907L30.0454 1.24693L28.1889 0.503071L17.0327 28.3468L18.8892 29.0907ZM29.1172 1.875H34.9531V-0.125H29.1172V1.875ZM33.9531 0.875V35H35.9531V0.875H33.9531ZM34.9531 34H30.4531V36H34.9531V34ZM31.4531 35V21.7109H29.4531V35H31.4531ZM31.4527 21.7403L31.8746 7.39659L29.8754 7.33779L29.4536 21.6815L31.4527 21.7403ZM29.9483 6.99146L18.7451 34.6243L20.5986 35.3757L31.8017 7.74291L29.9483 6.99146ZM19.6719 34H16.2266V36H19.6719V34ZM17.1532 34.6241L5.97355 7.06163L4.1202 7.81337L15.2999 35.3759L17.1532 34.6241ZM4.04736 7.46868L4.49268 21.7421L6.4917 21.6798L6.04639 7.40632L4.04736 7.46868ZM4.49219 21.7109V35H6.49219V21.7109H4.49219ZM5.49219 34H0.992188V36H5.49219V34ZM1.99219 35V0.875H-0.0078125V35H1.99219ZM0.992188 1.875H6.80469V-0.125H0.992188V1.875ZM52.6484 18.0078L51.7602 18.4671L52.6461 20.1804L53.5357 18.4691L52.6484 18.0078ZM61.5547 0.875V-0.125H60.9475L60.6674 0.413762L61.5547 0.875ZM66.6641 0.875L67.5403 1.35681L68.3551 -0.125H66.6641V0.875ZM54.8984 22.2734L54.0222 21.7916L53.8984 22.0166V22.2734H54.8984ZM54.8984 35V36H55.8984V35H54.8984ZM50.3984 35H49.3984V36H50.3984V35ZM50.3984 22.2734H51.3984V22.0166L51.2747 21.7916L50.3984 22.2734ZM38.6328 0.875V-0.125H36.9418L37.7565 1.35681L38.6328 0.875ZM43.7891 0.875L44.6773 0.415676L44.3978 -0.125H43.7891V0.875ZM53.5357 18.4691L62.442 1.33624L60.6674 0.413762L51.7612 17.5466L53.5357 18.4691ZM61.5547 1.875H66.6641V-0.125H61.5547V1.875ZM65.7878 0.393191L54.0222 21.7916L55.7747 22.7552L67.5403 1.35681L65.7878 0.393191ZM53.8984 22.2734V35H55.8984V22.2734H53.8984ZM54.8984 34H50.3984V36H54.8984V34ZM51.3984 35V22.2734H49.3984V35H51.3984ZM51.2747 21.7916L39.5091 0.393191L37.7565 1.35681L49.5222 22.7552L51.2747 21.7916ZM38.6328 1.875H43.7891V-0.125H38.6328V1.875ZM42.9008 1.33432L51.7602 18.4671L53.5367 17.5485L44.6773 0.415676L42.9008 1.33432ZM87.5 31.3203H86.5V32.3203H87.5V31.3203ZM103.672 31.3203H104.672V30.3203H103.672V31.3203ZM103.672 35V36H104.672V35H103.672ZM82.9766 35H81.9766V36H82.9766V35ZM82.9766 0.875V-0.125H81.9766V0.875H82.9766ZM87.5 0.875H88.5V-0.125H87.5V0.875ZM87.5 32.3203H103.672V30.3203H87.5V32.3203ZM102.672 31.3203V35H104.672V31.3203H102.672ZM103.672 34H82.9766V36H103.672V34ZM83.9766 35V0.875H81.9766V35H83.9766ZM82.9766 1.875H87.5V-0.125H82.9766V1.875ZM86.5 0.875V31.3203H88.5V0.875H86.5ZM113.633 35V36H114.633V35H113.633ZM109.133 35H108.133V36H109.133V35ZM109.133 0.875V-0.125H108.133V0.875H109.133ZM113.633 0.875H114.633V-0.125H113.633V0.875ZM113.633 34H109.133V36H113.633V34ZM110.133 35V0.875H108.133V35H110.133ZM109.133 1.875H113.633V-0.125H109.133V1.875ZM112.633 0.875V35H114.633V0.875H112.633ZM121.883 35H120.883V36H121.883V35ZM121.883 0.875V-0.125H120.883V0.875H121.883ZM141.383 3.17188L140.747 3.94381L140.75 3.94641L141.383 3.17188ZM142.836 14.2109L143.638 14.8077L143.642 14.8027L142.836 14.2109ZM139.133 17.0469L138.738 16.1282L136.136 17.2471L138.863 18.0099L139.133 17.0469ZM143.492 20L142.685 20.5903L142.692 20.6L143.492 20ZM126.383 19.0391V18.0391H125.383V19.0391H126.383ZM126.383 31.3203H125.383V32.3203H126.383V31.3203ZM138.758 29.7031L139.425 30.4479L139.426 30.4474L138.758 29.7031ZM126.383 15.4297H125.383V16.4297H126.383V15.4297ZM137.891 13.9531L137.252 13.1832L137.247 13.1874L137.891 13.9531ZM138.031 5.86719L137.413 6.65354L137.42 6.65897L138.031 5.86719ZM126.383 4.57812V3.57812H125.383V4.57812H126.383ZM122.883 35V0.875H120.883V35H122.883ZM121.883 1.875H133.039V-0.125H121.883V1.875ZM133.039 1.875C136.629 1.875 139.141 2.62101 140.747 3.94381L142.019 2.39994C139.906 0.660239 136.855 -0.125 133.039 -0.125V1.875ZM140.75 3.94641C142.338 5.243 143.195 7.1903 143.195 9.96875H145.195C145.195 6.7472 144.178 4.16325 142.015 2.39734L140.75 3.94641ZM143.195 9.96875C143.195 11.3589 142.805 12.5637 142.03 13.6191L143.642 14.8027C144.68 13.3894 145.195 11.7661 145.195 9.96875H143.195ZM142.033 13.6142C141.244 14.6753 140.158 15.5174 138.738 16.1282L139.528 17.9655C141.232 17.2326 142.615 16.1841 143.638 14.8076L142.033 13.6142ZM138.863 18.0099C140.506 18.4692 141.764 19.3302 142.685 20.5902L144.299 19.4098C143.096 17.7636 141.447 16.6558 139.402 16.0838L138.863 18.0099ZM142.692 20.6C143.626 21.8449 144.109 23.3469 144.109 25.1562H146.109C146.109 22.9656 145.515 21.0301 144.292 19.4L142.692 20.6ZM144.109 25.1562C144.109 27.9817 143.206 30.0955 141.471 31.625L142.794 33.125C145.029 31.1545 146.109 28.4558 146.109 25.1562H144.109ZM141.471 31.625C139.728 33.1627 137.191 34 133.719 34V36C137.497 36 140.569 35.0873 142.794 33.125L141.471 31.625ZM133.719 34H121.883V36H133.719V34ZM125.383 19.0391V31.3203H127.383V19.0391H125.383ZM126.383 32.3203H133.812V30.3203H126.383V32.3203ZM133.812 32.3203C136.078 32.3203 137.99 31.7343 139.425 30.4479L138.09 28.9584C137.12 29.8282 135.735 30.3203 133.812 30.3203V32.3203ZM139.426 30.4474C140.891 29.1322 141.586 27.3421 141.586 25.2031H139.586C139.586 26.8766 139.062 28.0865 138.09 28.9589L139.426 30.4474ZM141.586 25.2031C141.586 22.9717 140.975 21.1207 139.587 19.844C138.215 18.5819 136.252 18.0391 133.883 18.0391V20.0391C135.983 20.0391 137.371 20.5236 138.233 21.3162C139.079 22.0941 139.586 23.3251 139.586 25.2031H141.586ZM133.883 18.0391H126.383V20.0391H133.883V18.0391ZM126.383 16.4297H133.18V14.4297H126.383V16.4297ZM133.18 16.4297C135.315 16.4297 137.135 15.8935 138.534 14.7188L137.247 13.1874C136.302 13.9815 134.982 14.4297 133.18 14.4297V16.4297ZM138.529 14.723C139.969 13.5293 140.672 11.8987 140.672 9.94531H138.672C138.672 11.3669 138.187 12.4082 137.252 13.1832L138.529 14.723ZM140.672 9.94531C140.672 7.87908 140.062 6.17082 138.642 5.07541L137.42 6.65897C138.188 7.25105 138.672 8.26155 138.672 9.94531H140.672ZM138.649 5.08087C137.3 4.02127 135.371 3.57812 133.039 3.57812V5.57812C135.176 5.57812 136.575 5.99435 137.413 6.65351L138.649 5.08087ZM133.039 3.57812H126.383V5.57812H133.039V3.57812ZM125.383 4.57812V15.4297H127.383V4.57812H125.383ZM164.305 21.1953L165.186 20.7226L164.903 20.1953H164.305V21.1953ZM156.289 21.1953V20.1953H155.289V21.1953H156.289ZM156.289 35V36H157.289V35H156.289ZM151.766 35H150.766V36H151.766V35ZM151.766 0.875V-0.125H150.766V0.875H151.766ZM171.922 3.5L171.275 4.26251L171.278 4.26491L171.922 3.5ZM173.305 16.6953L172.498 16.1043L172.494 16.1095L173.305 16.6953ZM168.523 20.2344L168.167 19.3001L167.091 19.7108L167.648 20.7186L168.523 20.2344ZM176.539 34.7188H177.539V34.4605L177.414 34.2346L176.539 34.7188ZM176.539 35V36H177.539V35H176.539ZM171.711 35L170.83 35.4728L171.113 36H171.711V35ZM156.289 17.5156H155.289V18.5156H156.289V17.5156ZM168.523 15.7812L167.867 15.027L167.862 15.0309L168.523 15.7812ZM168.617 6.28906L167.948 7.03237L167.953 7.03647L168.617 6.28906ZM163.18 4.57812L163.186 3.57812H163.18V4.57812ZM156.289 4.57812V3.57812H155.289V4.57812H156.289ZM164.305 20.1953H156.289V22.1953H164.305V20.1953ZM155.289 21.1953V35H157.289V21.1953H155.289ZM156.289 34H151.766V36H156.289V34ZM152.766 35V0.875H150.766V35H152.766ZM151.766 1.875H163.062V-0.125H151.766V1.875ZM163.062 1.875C166.768 1.875 169.456 2.71929 171.275 4.26251L172.569 2.73749C170.263 0.780708 167.045 -0.125 163.062 -0.125V1.875ZM171.278 4.26491C173.079 5.78172 174.039 8.01751 174.039 11.1406H176.039C176.039 7.57624 174.921 4.71828 172.566 2.73509L171.278 4.26491ZM174.039 11.1406C174.039 13.0724 173.518 14.7126 172.498 16.1043L174.111 17.2863C175.404 15.5218 176.039 13.4588 176.039 11.1406H174.039ZM172.494 16.1095C171.482 17.5105 170.055 18.5793 168.167 19.3001L168.88 21.1686C171.085 20.3269 172.846 19.0364 174.115 17.2811L172.494 16.1095ZM167.648 20.7186L175.664 35.2029L177.414 34.2346L169.398 19.7502L167.648 20.7186ZM175.539 34.7188V35H177.539V34.7188H175.539ZM176.539 34H171.711V36H176.539V34ZM172.592 34.5272L165.186 20.7226L163.423 21.6681L170.83 35.4728L172.592 34.5272ZM156.289 18.5156H163.203V16.5156H156.289V18.5156ZM163.203 18.5156C165.611 18.5156 167.643 17.8894 169.184 16.5316L167.862 15.0309C166.779 15.9856 165.264 16.5156 163.203 16.5156V18.5156ZM169.18 16.5355C170.75 15.1689 171.516 13.3348 171.516 11.1406H169.516C169.516 12.8215 168.953 14.0811 167.867 15.027L169.18 16.5355ZM171.516 11.1406C171.516 8.82125 170.811 6.90146 169.282 5.54165L167.953 7.03647C168.954 7.92666 169.516 9.24125 169.516 11.1406H171.516ZM169.286 5.54577C167.791 4.20047 165.706 3.59472 163.186 3.57815L163.173 5.5781C165.404 5.59278 166.943 6.12766 167.948 7.03236L169.286 5.54577ZM163.18 3.57812H156.289V5.57812H163.18V3.57812ZM155.289 4.57812V17.5156H157.289V4.57812H155.289ZM200.211 26.0938L201.15 25.7502L200.91 25.0938H200.211V26.0938ZM185.914 26.0938V25.0938H185.212L184.973 25.7546L185.914 26.0938ZM182.703 35V36H183.406L183.644 35.3392L182.703 35ZM178.062 35L177.128 34.6433L176.61 36H178.062V35ZM191.094 0.875V-0.125H190.405L190.16 0.518258L191.094 0.875ZM195.031 0.875L195.965 0.517698L195.719 -0.125H195.031V0.875ZM208.086 35V36H209.539L209.02 34.6427L208.086 35ZM203.469 35L202.53 35.3435L202.77 36H203.469V35ZM187.273 22.3906L186.333 22.0497L185.847 23.3906H187.273V22.3906ZM198.875 22.3906V23.3906H200.303L199.815 22.0484L198.875 22.3906ZM193.062 6.42969L194.002 6.0875L193.061 3.50209L192.122 6.08872L193.062 6.42969ZM200.211 25.0938H185.914V27.0938H200.211V25.0938ZM184.973 25.7546L181.762 34.6608L183.644 35.3392L186.855 26.4329L184.973 25.7546ZM182.703 34H178.062V36H182.703V34ZM178.997 35.3567L192.028 1.23174L190.16 0.518258L177.128 34.6433L178.997 35.3567ZM191.094 1.875H195.031V-0.125H191.094V1.875ZM194.097 1.2323L207.152 35.3573L209.02 34.6427L195.965 0.517698L194.097 1.2323ZM208.086 34H203.469V36H208.086V34ZM204.408 34.6565L201.15 25.7502L199.272 26.4373L202.53 35.3435L204.408 34.6565ZM187.273 23.3906H198.875V21.3906H187.273V23.3906ZM199.815 22.0484L194.002 6.0875L192.123 6.77187L197.935 22.7328L199.815 22.0484ZM192.122 6.08872L186.333 22.0497L188.214 22.7316L194.003 6.77065L192.122 6.08872ZM225.195 21.1953L226.077 20.7226L225.794 20.1953H225.195V21.1953ZM217.18 21.1953V20.1953H216.18V21.1953H217.18ZM217.18 35V36H218.18V35H217.18ZM212.656 35H211.656V36H212.656V35ZM212.656 0.875V-0.125H211.656V0.875H212.656ZM232.812 3.5L232.166 4.26251L232.168 4.26491L232.812 3.5ZM234.195 16.6953L233.389 16.1043L233.385 16.1095L234.195 16.6953ZM229.414 20.2344L229.057 19.3001L227.981 19.7108L228.539 20.7186L229.414 20.2344ZM237.43 34.7188H238.43V34.4605L238.305 34.2346L237.43 34.7188ZM237.43 35V36H238.43V35H237.43ZM232.602 35L231.72 35.4728L232.003 36H232.602V35ZM217.18 17.5156H216.18V18.5156H217.18V17.5156ZM229.414 15.7812L228.757 15.027L228.753 15.0309L229.414 15.7812ZM229.508 6.28906L228.839 7.03237L228.843 7.03647L229.508 6.28906ZM224.07 4.57812L224.077 3.57812H224.07V4.57812ZM217.18 4.57812V3.57812H216.18V4.57812H217.18ZM225.195 20.1953H217.18V22.1953H225.195V20.1953ZM216.18 21.1953V35H218.18V21.1953H216.18ZM217.18 34H212.656V36H217.18V34ZM213.656 35V0.875H211.656V35H213.656ZM212.656 1.875H223.953V-0.125H212.656V1.875ZM223.953 1.875C227.658 1.875 230.347 2.71929 232.166 4.26251L233.459 2.73749C231.153 0.780708 227.936 -0.125 223.953 -0.125V1.875ZM232.168 4.26491C233.97 5.78172 234.93 8.01751 234.93 11.1406H236.93C236.93 7.57624 235.812 4.71828 233.457 2.73509L232.168 4.26491ZM234.93 11.1406C234.93 13.0724 234.408 14.7126 233.389 16.1043L235.002 17.2863C236.295 15.5218 236.93 13.4588 236.93 11.1406H234.93ZM233.385 16.1095C232.372 17.5105 230.946 18.5793 229.057 19.3001L229.771 21.1686C231.976 20.3269 233.737 19.0364 235.006 17.2811L233.385 16.1095ZM228.539 20.7186L236.555 35.2029L238.305 34.2346L230.289 19.7502L228.539 20.7186ZM236.43 34.7188V35H238.43V34.7188H236.43ZM237.43 34H232.602V36H237.43V34ZM233.483 34.5272L226.077 20.7226L224.314 21.6681L231.72 35.4728L233.483 34.5272ZM217.18 18.5156H224.094V16.5156H217.18V18.5156ZM224.094 18.5156C226.502 18.5156 228.534 17.8894 230.075 16.5316L228.753 15.0309C227.669 15.9856 226.154 16.5156 224.094 16.5156V18.5156ZM230.071 16.5355C231.64 15.1689 232.406 13.3348 232.406 11.1406H230.406C230.406 12.8215 229.844 14.0811 228.757 15.027L230.071 16.5355ZM232.406 11.1406C232.406 8.82125 231.702 6.90146 230.172 5.54165L228.843 7.03647C229.845 7.92666 230.406 9.24125 230.406 11.1406H232.406ZM230.177 5.54577C228.682 4.20047 226.596 3.59472 224.077 3.57815L224.064 5.5781C226.294 5.59278 227.834 6.12766 228.839 7.03236L230.177 5.54577ZM224.07 3.57812H217.18V5.57812H224.07V3.57812ZM216.18 4.57812V17.5156H218.18V4.57812H216.18ZM251.539 18.0078L250.651 18.4671L251.537 20.1804L252.426 18.4691L251.539 18.0078ZM260.445 0.875V-0.125H259.838L259.558 0.413762L260.445 0.875ZM265.555 0.875L266.431 1.35681L267.246 -0.125H265.555V0.875ZM253.789 22.2734L252.913 21.7916L252.789 22.0166V22.2734H253.789ZM253.789 35V36H254.789V35H253.789ZM249.289 35H248.289V36H249.289V35ZM249.289 22.2734H250.289V22.0166L250.165 21.7916L249.289 22.2734ZM237.523 0.875V-0.125H235.832L236.647 1.35681L237.523 0.875ZM242.68 0.875L243.568 0.415676L243.288 -0.125H242.68V0.875ZM252.426 18.4691L261.333 1.33624L259.558 0.413762L250.652 17.5466L252.426 18.4691ZM260.445 1.875H265.555V-0.125H260.445V1.875ZM264.678 0.393191L252.913 21.7916L254.665 22.7552L266.431 1.35681L264.678 0.393191ZM252.789 22.2734V35H254.789V22.2734H252.789ZM253.789 34H249.289V36H253.789V34ZM250.289 35V22.2734H248.289V35H250.289ZM250.165 21.7916L238.4 0.393191L236.647 1.35681L248.413 22.7552L250.165 21.7916ZM237.523 1.875H242.68V-0.125H237.523V1.875ZM241.791 1.33432L250.651 18.4671L252.427 17.5485L243.568 0.415676L241.791 1.33432ZM265.062 30.8516L264.322 30.18L264.316 30.1865L264.31 30.1931L265.062 30.8516ZM269.094 30.8516L268.353 31.5231L268.358 31.5293L268.364 31.5355L269.094 30.8516ZM269.094 34.5312L268.375 33.8358L268.369 33.8419L268.363 33.8481L269.094 34.5312ZM265.062 34.5312L264.32 35.2015L264.326 35.208L264.332 35.2144L265.062 34.5312ZM265.406 32.7266C265.406 32.1854 265.558 31.8041 265.815 31.5101L264.31 30.1931C263.692 30.899 263.406 31.7677 263.406 32.7266H265.406ZM265.803 31.5231C266.011 31.2936 266.375 31.1016 267.078 31.1016V29.1016C266 29.1016 265.02 29.4095 264.322 30.18L265.803 31.5231ZM267.078 31.1016C267.782 31.1016 268.145 31.2936 268.353 31.5231L269.835 30.18C269.136 29.4095 268.156 29.1016 267.078 29.1016V31.1016ZM268.364 31.5355C268.642 31.832 268.797 32.2045 268.797 32.7266H270.797C270.797 31.7486 270.483 30.8712 269.823 30.1676L268.364 31.5355ZM268.797 32.7266C268.797 33.2047 268.651 33.5512 268.375 33.8358L269.812 35.2267C270.474 34.5426 270.797 33.6859 270.797 32.7266H268.797ZM268.363 33.8481C268.158 34.068 267.791 34.2578 267.078 34.2578V36.2578C268.147 36.2578 269.124 35.9632 269.824 35.2144L268.363 33.8481ZM267.078 34.2578C266.365 34.2578 265.999 34.068 265.793 33.8481L264.332 35.2144C265.033 35.9632 266.01 36.2578 267.078 36.2578V34.2578ZM265.805 33.861C265.55 33.5795 265.406 33.2248 265.406 32.7266H263.406C263.406 33.6659 263.7 34.5142 264.32 35.2015L265.805 33.861ZM296.938 19.2266V20.2266H297.938V19.2266H296.938ZM282.148 19.2266V18.2266H281.148V19.2266H282.148ZM282.148 31.3203H281.148V32.3203H282.148V31.3203ZM299.328 31.3203H300.328V30.3203H299.328V31.3203ZM299.328 35V36H300.328V35H299.328ZM277.648 35H276.648V36H277.648V35ZM277.648 0.875V-0.125H276.648V0.875H277.648ZM299.094 0.875H300.094V-0.125H299.094V0.875ZM299.094 4.57812V5.57812H300.094V4.57812H299.094ZM282.148 4.57812V3.57812H281.148V4.57812H282.148ZM282.148 15.5469H281.148V16.5469H282.148V15.5469ZM296.938 15.5469H297.938V14.5469H296.938V15.5469ZM296.938 18.2266H282.148V20.2266H296.938V18.2266ZM281.148 19.2266V31.3203H283.148V19.2266H281.148ZM282.148 32.3203H299.328V30.3203H282.148V32.3203ZM298.328 31.3203V35H300.328V31.3203H298.328ZM299.328 34H277.648V36H299.328V34ZM278.648 35V0.875H276.648V35H278.648ZM277.648 1.875H299.094V-0.125H277.648V1.875ZM298.094 0.875V4.57812H300.094V0.875H298.094ZM299.094 3.57812H282.148V5.57812H299.094V3.57812ZM281.148 4.57812V15.5469H283.148V4.57812H281.148ZM282.148 16.5469H296.938V14.5469H282.148V16.5469ZM295.938 15.5469V19.2266H297.938V15.5469H295.938Z" fill="#734C4F"/>
</g>
<defs>
<filter id="filter0_d_3_25" x="0.992188" y="0.875" width="312.336" height="48.3828" filterUnits="userSpaceOnUse" color-interpolation-filters="sRGB">
<feFlood flood-opacity="0" result="BackgroundImageFix"/>
<feColorMatrix in="SourceAlpha" type="matrix" values="0 0 0 0 0 0 0 0 0 0 0 0 0 0 0 0 0 0 127 0" result="hardAlpha"/>
<feOffset dx="10" dy="10"/>
<feGaussianBlur stdDeviation="2"/>
<feComposite in2="hardAlpha" operator="out"/>
<feColorMatrix type="matrix" values="0 0 0 0 0 0 0 0 0 0 0 0 0 0 0 0 0 0 0.25 0"/>
<feBlend mode="normal" in2="BackgroundImageFix" result="effect1_dropShadow_3_25"/>
<feBlend mode="normal" in="SourceGraphic" in2="effect1_dropShadow_3_25" result="shape"/>
</filter>
</defs>
</svg>
